Full Credits To Feel Free :)

 ######## ######## ######## ##          ######## ########  ######## ######## 
 ##       ##       ##       ##          ##       ##     ## ##       ##       
 ##       ##       ##       ##          ##       ##     ## ##       ##       
 ######   ######   ######   ##          ######   ########  ######   ######   
 ##       ##       ##       ##          ##       ##   ##   ##       ##       
 ##       ##       ##       ##          ##       ##    ##  ##       ##       
 ##       ######## ######## ########    ##       ##     ## ######## ######## 

Genre:Drama | Thriller
 Language:English
 IMDb: 
http://www.imdb.com/title/tt1552221/
 Source:720P HD File Thanks!

 Format : MPEG-4
 Format profile : Base Media
 Codec ID : isom
 File size : 1.15 GiB
 Duration : 1h 35mn
 Overall bit rate : 1 712 Kbps

 Video
 ID : 1
 Format : AVC
 Format/Info : Advanced Video Codec
 Format profile : High@L4.1
 Format settings, CABAC : Yes
 Format settings, ReFrames : 3 frames
 Codec ID : avc1
 Codec ID/Info : Advanced Video Coding
 Duration : 1h 35mn
 Bit rate mode : Variable
 Bit rate : 1 500 Kbps
 Maximum bit rate : 11.4 Mbps
 Width : 720 pixels
 Height : 304 pixels
 Display aspect ratio : 2.35:1
 Frame rate mode : Constant
 Frame rate : 23.976 fps
 Color space : YUV
 Chroma subsampling : 4:2:0
 Bit depth : 8 bits
 Scan type : Progressive
 Bits/(Pixel*Frame) : 0.286
 Stream size : 1 019 MiB (87%)
 Writing library : x264

 Audio
 ID : 2
 Format : AAC
 Format/Info : Advanced Audio Codec
 Format version : Version 4
 Format profile : LC
 Format settings, SBR : No
 Codec ID : 40
 Duration : 1h 35mn
 Bit rate mode : Variable
 Bit rate : 224 Kbps
 Maximum bit rate : 278 Kbps
 Channel(s) : 2 channels
 Channel positions : Front: L R
 Sampling rate : 48.0 KHz
 Stream size : 154 MiB (13%)


 Plot:
 A single church-going mother desperately tries to save her two daughters from walking down the same dark path she was once on; and a young woman fights against addiction to a mysterious party drug


Greets:

 INK,CRYS,IMAGINE,LKRG,FXG,3Li,FLAWL3SS,TA,iLLUSiON,ViSiON,DTRG SAFCuk009,LU,TheFalcon007,MYSTiC,PrisM,Noir,WBZ,LAP,Rx,Kingdom,SAFCuk009+Fabreezy,HDLiTE,TWiZTED,ExtraTorrentRG.ELEKTRI4KA,MAGNAT,CM8
 And to all the other p2p grps past and present






==================================  
http://thepiratebay.org/user/hiest
==================================






 Screen Shots:
 
http://leetleech.org/images/17045477525102331801.png
 
http://leetleech.org/images/96597387191514502115.png
 
http://leetleech.org/images/18454964387280635624.png
 
http://leetleech.org/images/18241227299322052951.png
 
http://leetleech.org/images/40282289686610726287.png


Full Credits To Feel Free :)

 ######## ######## ######## ##          ######## ########  ######## ######## 
 ##       ##       ##       ##          ##       ##     ## ##       ##       
 ##       ##       ##       ##          ##       ##     ## ##       ##       
 ######   ######   ######   ##          ######   ########  ######   ######   
 ##       ##       ##       ##          ##       ##   ##   ##       ##       
 ##       ##       ##       ##          ##       ##    ##  ##       ##       
 ##       ######## ######## ########    ##       ##     ## ######## ######## 